<svg width="450" height="342" viewBox="0 0 450 342" fill="none" xmlns="http://www.w3.org/2000/svg">
<g clip-path="url(#clip0)">
<path opacity="0.18" d="M417.551 96.764C416.144 123.164 410.089 149.371 411.042 175.78C385.11 176.461 359.493 175.666 333.737 180.957C304.747 186.893 274.91 186.788 245.318 186.605C165.269 186.087 85.2209 185.138 5.17236 183.759C8.37677 169.351 12.4884 155.16 17.4828 141.27C28.3604 110.523 12.4852 73.4634 30.5883 45.6146C61.9455 -2.72376 138.709 7.20232 186.535 10.188C213.402 11.8816 240.539 13.5665 267.099 9.21896C284.206 6.41661 322.911 -0.0349011 325.244 1.91249e-05C351.595 0.480172 421.762 18.6125 417.551 96.764Z" fill="#1E54B7"/>
<path d="M215.988 70.0587V86.7768H218.163V79.9499H230.832L226.874 74.7119L231.33 69.6659L215.988 70.0587Z" fill="#1E54B7"/>
<path d="M215.988 69.9801V86.6982H218.163V79.8713H230.832L226.874 74.6333L231.33 69.5873L215.988 69.9801Z" fill="url(#paint0_linear)"/>
<path d="M436.335 317.792C430.621 323.562 423.335 327.788 415.733 331.105C382.786 345.448 344.667 343.266 308.967 337.941C273.268 332.615 237.42 324.444 201.371 327.796C180.402 329.752 159.879 335.575 138.954 336.649C136.437 336.777 133.912 336.832 131.379 336.814C118.788 336.701 106.382 334.501 94.2637 331.245C87.9818 329.568 81.7697 327.595 75.6364 325.492C57.1663 319.153 38.5564 311.052 26.0101 296.883C18.6448 288.563 -12.0484 262.967 5.17231 183.759C85.215 185.144 165.264 186.093 245.318 186.605C274.91 186.788 304.73 186.893 333.737 180.948C359.52 175.71 385.11 176.461 411.042 175.788C411.12 177.866 411.234 179.953 411.409 182.039C412.606 196.941 416.537 204.51 424.462 216.89C431.845 228.413 439.315 240.016 444.33 252.796C452.796 274.246 453.049 300.899 436.335 317.792Z" fill="#1E54B7"/>
<path d="M353.57 180.765C353.945 179.324 354.513 177.936 354.906 176.496C355.108 175.951 355.124 175.356 354.95 174.802C354.725 174.372 354.379 174.017 353.954 173.781C351.488 172.143 348.508 171.463 345.575 171.869C344.803 171.95 344.06 172.203 343.4 172.611C342.531 173.273 341.935 174.229 341.722 175.3C341.516 176.362 341.402 177.439 341.382 178.521C341.182 179.969 341.182 181.438 341.382 182.886C341.495 183.603 341.797 184.277 342.258 184.839C342.719 185.401 343.321 185.829 344.003 186.081C344.151 186.113 344.297 186.153 344.439 186.203C345.313 186.544 345.409 187.714 346.134 188.237C346.538 188.487 347.006 188.612 347.48 188.595C348.512 188.693 349.55 188.5 350.477 188.037C351.404 187.574 352.182 186.86 352.722 185.976C352.996 185.396 353.122 184.757 353.089 184.117C353.124 182.985 353.285 181.861 353.57 180.765Z" fill="url(#paint1_linear)"/>
<path d="M171.315 203.55L161.242 224.144L153.876 216.628L159.809 200.774L169.795 202.031L171.315 203.55Z" fill="url(#paint2_linear)"/>
<path d="M169.795 202.031L159.721 222.625L152.347 215.109L158.289 199.255L169.795 202.031Z" fill="#1E54B7"/>
<path d="M169.795 201.979L159.721 222.564L152.347 215.056L158.289 199.194L169.795 201.979Z" fill="url(#paint3_linear)"/>
<path d="M149.228 301.781C148.136 305.212 147.096 308.642 146.1 312.1C144.126 318.932 142.329 325.82 140.71 332.764C140.518 333.899 140.115 334.989 139.521 335.976C139.356 336.22 139.166 336.445 138.954 336.648C136.437 336.777 133.912 336.832 131.379 336.814C118.788 336.701 106.382 334.501 94.2637 331.245L94.3685 331.149C95.5894 329.376 97.021 327.758 98.6322 326.33C103.874 321.31 114.464 318.263 119.881 313.418C122.022 311.324 124.449 309.543 127.089 308.127C131.588 305.971 131.545 304.138 136.533 304.225C137.104 304.177 137.677 304.301 138.176 304.583C139.233 305.343 138.814 306.984 138.272 308.18C137.433 310.048 136.589 311.919 135.738 313.793C136.538 313.749 137.319 313.538 138.033 313.175C138.746 312.811 139.375 312.302 139.88 311.681C140.883 310.44 141.701 309.061 142.309 307.586L145.506 300.785C146.027 299.467 146.805 298.265 147.795 297.25C151.919 293.478 149.77 300.096 149.228 301.781Z" fill="url(#paint4_linear)"/>
<path d="M150.399 279.833C149.7 282.121 148.8 284.347 148.241 286.669C147.599 288.985 147.599 291.433 148.241 293.749C148.515 294.307 148.589 294.942 148.451 295.547C148.337 295.806 148.152 296.025 147.916 296.18C147.68 296.335 147.405 296.419 147.123 296.42C146.554 296.415 146.005 296.214 145.567 295.853C144.965 295.337 144.478 294.701 144.138 293.985C143.798 293.269 143.612 292.49 143.593 291.697C143.562 290.115 143.659 288.533 143.881 286.966C144.248 282.705 143.54 278.436 143.532 274.167C143.532 272.587 143.61 271.007 143.706 269.436C143.934 265.862 144.202 262.297 144.51 258.741C144.449 257.75 144.449 256.756 144.51 255.764C144.711 255.372 145.777 255.642 146.153 255.424C147.743 254.472 149.246 255.503 151.08 255.808C153.055 256.14 152.723 257.641 152.714 259.3C152.755 263.736 152.498 268.169 151.945 272.57C151.618 275.027 151.101 277.456 150.399 279.833Z" fill="url(#paint5_linear)"/>
<path d="M135.144 263.927C134.908 265.839 134.524 267.725 134.332 269.637C133.764 275.215 134.803 280.811 135.205 286.398C135.179 287.024 135.367 287.64 135.738 288.144C135.993 288.393 136.321 288.555 136.673 288.607C137.308 288.667 137.946 288.541 138.51 288.243C139.073 287.945 139.537 287.489 139.845 286.931C140.437 285.799 140.772 284.549 140.823 283.273C141.173 279.929 141.26 276.568 141.339 273.207C141.387 272.512 141.343 271.813 141.208 271.129C141.059 270.544 140.771 270.003 140.64 269.383C140.273 267.681 141.251 266.022 141.985 264.442C142.859 262.532 143.411 260.491 143.619 258.401C143.829 256.236 144.108 254.114 141.592 253.547C138.613 252.866 136.35 254.167 135.721 257.153C135.266 259.353 135.432 261.692 135.144 263.927Z" fill="url(#paint6_linear)"/>
<path d="M161.451 198.827C163.129 200.835 163.662 203.532 164.072 206.108C164.701 209.908 165.226 213.72 165.645 217.544C165.811 219.081 165.925 220.783 165.016 222.032C164.807 222.354 164.501 222.602 164.142 222.739C163.743 222.804 163.333 222.762 162.955 222.616C162.577 222.471 162.245 222.226 161.993 221.909C159.372 219.386 158.586 215.606 157.397 212.184C156.524 209.74 155.44 207.374 154.776 204.877C154.278 203.052 153.291 198.67 154.89 197.142C156.655 195.44 160.237 197.36 161.451 198.827Z" fill="url(#paint7_linear)"/>
<path d="M310.033 123.172L125.306 123.172V186.474H310.033V123.172Z" fill="#1E54B7"/>
<path d="M310.033 123.172L125.306 123.172V186.474H310.033V123.172Z" fill="url(#paint8_linear)"/>
<path d="M127.683 103.591L116.062 124.953L318.543 124.953L305.874 104.385L127.683 103.591Z" fill="#1E54B7"/>
<path d="M127.683 103.591L116.062 124.953L318.543 124.953L305.874 104.385L127.683 103.591Z" fill="url(#paint9_linear)"/>
<path d="M243.833 186.684H189.978V115.193L217.167 89.745L243.833 115.193V186.684Z" fill="#1E54B7"/>
<path d="M243.833 186.684H189.978V115.193L217.167 89.745L243.833 115.193V186.684Z" fill="url(#paint10_linear)"/>
<path d="M183.713 116.249L186.09 119.026L217.167 89.745L247.467 118.825L250.237 116.45L216.975 83.0142L183.713 116.249Z" fill="#1E54B7"/>
<path d="M230.902 145.792H202.393V186.675H230.902V145.792Z" fill="white"/>
<path d="M229.845 131.483H204.603V139.89H229.845V131.483Z" fill="#1E54B7"/>
<path d="M217.325 123.076C222.763 123.076 227.171 118.671 227.171 113.238C227.171 107.804 222.763 103.399 217.325 103.399C211.886 103.399 207.478 107.804 207.478 113.238C207.478 118.671 211.886 123.076 217.325 123.076Z" fill="#1E54B7"/>
<path d="M153.815 130.89H132.829V136.922H153.815V130.89Z" fill="#1E54B7"/>
<path d="M181.538 130.89H160.551V136.922H181.538V130.89Z" fill="#1E54B7"/>
<path d="M274.587 130.89H253.601V136.922H274.587V130.89Z" fill="#1E54B7"/>
<path d="M302.31 130.89H281.323V136.922H302.31V130.89Z" fill="#1E54B7"/>
<path d="M153.422 139.995H133.03V152.654H153.422V139.995Z" fill="#1E54B7"/>
<path d="M147.149 140.091H139.233V153.082H147.149V140.091Z" fill="#1E54B7"/>
<path d="M181.241 139.995H160.848V152.654H181.241V139.995Z" fill="#1E54B7"/>
<path d="M174.967 140.091H167.052V153.082H174.967V140.091Z" fill="#1E54B7"/>
<path d="M181.241 160.965H160.848V173.623H181.241V160.965Z" fill="#1E54B7"/>
<path d="M174.967 161.061H167.052V174.051H174.967V161.061Z" fill="#1E54B7"/>
<path d="M153.125 160.965H132.733V173.623H153.125V160.965Z" fill="#1E54B7"/>
<path d="M146.852 161.061H138.936V174.051H146.852V161.061Z" fill="#1E54B7"/>
<path d="M302.406 160.965H282.013V173.623H302.406V160.965Z" fill="#1E54B7"/>
<path d="M296.132 161.061H288.217V174.051H296.132V161.061Z" fill="#1E54B7"/>
<path d="M274.29 160.965H253.898V173.623H274.29V160.965Z" fill="#1E54B7"/>
<path d="M268.017 161.061H260.101V174.051H268.017V161.061Z" fill="#1E54B7"/>
<path d="M302.406 139.594H282.013V152.252H302.406V139.594Z" fill="#1E54B7"/>
<path d="M296.132 139.698H288.217V152.689H296.132V139.698Z" fill="#1E54B7"/>
<path d="M274.29 139.594H253.898V152.252H274.29V139.594Z" fill="#1E54B7"/>
<path d="M268.017 139.698H260.101V152.689H268.017V139.698Z" fill="#1E54B7"/>
<path d="M155.999 189.722C155.737 190.525 155.283 191.415 154.453 191.564C153.918 191.587 153.385 191.482 152.898 191.258C152.654 191.15 152.384 191.11 152.119 191.144C151.854 191.178 151.604 191.284 151.395 191.45C151.219 191.708 151.07 191.983 150.949 192.271C150.513 192.978 149.027 195.763 148.197 195.702C147.471 195.665 146.762 195.472 146.118 195.134C145.798 194.964 145.52 194.726 145.302 194.436C145.085 194.146 144.934 193.813 144.86 193.458C144.737 192.716 145.55 189.276 145.733 188.552C145.898 187.769 146.117 186.999 146.389 186.247C146.775 185.485 147.296 184.798 147.926 184.222C149.569 182.598 151.631 181.131 153.946 181.131C154.401 181.112 154.852 181.211 155.257 181.419C155.637 181.658 155.956 181.98 156.192 182.362C156.553 182.825 156.847 183.336 157.065 183.881C157.137 184.453 157.087 185.033 156.917 185.584C156.715 186.984 156.409 188.367 155.999 189.722Z" fill="url(#paint11_linear)"/>
<path d="M140.823 192.995C146.743 192.055 152.807 193.108 158.061 195.99C158.411 196.155 158.712 196.408 158.935 196.723C159.09 197.017 159.174 197.343 159.18 197.675C159.433 200.748 158.306 203.733 157.633 206.754C157.154 209.334 156.862 211.945 156.76 214.567L155.991 225.986C156.027 227.429 155.651 228.852 154.907 230.089C153.911 231.425 152.146 231.949 150.486 232.115C147.653 232.337 144.804 231.975 142.116 231.05C140.278 230.548 138.577 229.634 137.145 228.378C135.353 226.491 134.345 223.995 134.323 221.394C134.299 218.83 134.656 216.277 135.38 213.817C136.542 209.181 138.001 204.545 138.045 199.77C138.054 197.037 137.407 193.545 140.823 192.995Z" fill="#1E54B7"/>
<path d="M140.823 192.995C146.743 192.055 152.807 193.108 158.061 195.99C158.411 196.155 158.712 196.408 158.935 196.723C159.09 197.017 159.174 197.343 159.18 197.675C159.433 200.748 158.306 203.733 157.633 206.754C157.154 209.334 156.862 211.945 156.76 214.567L155.991 225.986C156.027 227.429 155.651 228.852 154.907 230.089C153.911 231.425 152.146 231.949 150.486 232.115C147.653 232.337 144.804 231.975 142.116 231.05C140.278 230.548 138.577 229.634 137.145 228.378C135.353 226.491 134.345 223.995 134.323 221.394C134.299 218.83 134.656 216.277 135.38 213.817C136.542 209.181 138.001 204.545 138.045 199.77C138.054 197.037 137.407 193.545 140.823 192.995Z" fill="url(#paint12_linear)"/>
<path d="M132.462 199.229C131.344 200.294 130.374 201.499 129.273 202.581C127.691 204.126 125.865 205.392 124.205 206.85C122.471 208.232 121.12 210.035 120.283 212.088C119.837 213.363 119.767 214.934 120.702 215.921C121.637 216.907 123.131 216.933 124.459 216.872C125.27 216.876 126.075 216.734 126.835 216.453C127.377 216.185 127.88 215.845 128.329 215.44C131.774 212.621 135.023 209.57 138.054 206.309C138.71 205.675 139.253 204.934 139.661 204.118C140.037 203.154 140.198 202.12 140.133 201.088C140.133 199.84 140.072 194.628 138.211 194.593C137.337 194.593 136.131 196.147 135.485 196.671C134.463 197.518 133.414 198.312 132.462 199.229Z" fill="url(#paint13_linear)"/>
<path d="M155.711 235.877C157.398 243.343 157.694 251.055 156.585 258.628C154.435 256.384 150.984 256.009 147.848 256.288C144.711 256.568 141.662 257.406 138.578 257.048C135.703 256.707 132.89 255.345 130.042 255.852C129.238 256 128.46 256.288 127.648 256.419C125.132 256.83 122.65 255.677 120.352 254.551C120.012 254.385 119.618 254.158 119.566 253.774C119.556 253.52 119.633 253.271 119.784 253.067C121.025 250.905 122.736 249.049 124.791 247.637C125.669 247.131 126.469 246.502 127.167 245.769C127.589 245.203 127.939 244.587 128.207 243.935C128.854 242.589 129.4 241.197 129.841 239.771C130.461 237.51 130.531 235.135 131.038 232.857C131.545 230.578 132.637 228.247 134.664 227.078C136.691 225.908 139.032 226.117 141.181 226.597C144.816 227.401 148.25 228.92 151.841 229.871C155.012 230.692 155.047 232.918 155.711 235.877Z" fill="#1E54B7"/>
<path d="M155.711 235.877C157.398 243.343 157.694 251.055 156.585 258.628C154.435 256.384 150.984 256.009 147.848 256.288C144.711 256.568 141.662 257.406 138.578 257.048C135.703 256.707 132.89 255.345 130.042 255.852C129.238 256 128.46 256.288 127.648 256.419C125.132 256.83 122.65 255.677 120.352 254.551C120.012 254.385 119.618 254.158 119.566 253.774C119.556 253.52 119.633 253.271 119.784 253.067C121.025 250.905 122.736 249.049 124.791 247.637C125.669 247.131 126.469 246.502 127.167 245.769C127.589 245.203 127.939 244.587 128.207 243.935C128.854 242.589 129.4 241.197 129.841 239.771C130.461 237.51 130.531 235.135 131.038 232.857C131.545 230.578 132.637 228.247 134.664 227.078C136.691 225.908 139.032 226.117 141.181 226.597C144.816 227.401 148.25 228.92 151.841 229.871C155.012 230.692 155.047 232.918 155.711 235.877Z" fill="url(#paint14_linear)"/>
<path d="M136.009 285.045C136.621 284.658 137.353 284.508 138.068 284.624C138.783 284.74 139.43 285.113 139.888 285.674C140.77 286.835 141.241 288.257 141.225 289.716C141.225 290.731 141.333 291.744 141.548 292.736C142.018 294.15 142.811 295.435 143.864 296.49C144.737 297.494 145.742 298.655 145.559 299.982C145.375 301.309 144.038 302.191 142.719 302.444C141.672 302.636 140.592 302.547 139.59 302.187C138.587 301.827 137.699 301.208 137.014 300.392C135.162 298.123 135.266 295.058 135.511 292.317C135.66 290.117 133.886 286.73 136.009 285.045Z" fill="#3F3D56"/>
<path d="M136.857 292.501C136.766 291.762 136.881 291.013 137.189 290.335C137.35 290.002 137.621 289.733 137.956 289.574C138.292 289.415 138.671 289.376 139.032 289.462C139.373 289.632 139.657 289.897 139.848 290.226C140.039 290.555 140.129 290.933 140.107 291.313C140.046 292.071 140.028 292.832 140.054 293.592C140.362 294.814 141.073 295.896 142.073 296.665C142.785 297.234 143.378 297.937 143.82 298.734C144.029 299.136 144.106 299.593 144.04 300.041C143.974 300.49 143.769 300.906 143.453 301.231C143.218 301.406 142.949 301.529 142.662 301.591C142.376 301.653 142.079 301.652 141.793 301.589C141.221 301.452 140.683 301.199 140.212 300.846C138.897 299.992 137.902 298.728 137.381 297.25C137.233 296.615 137.171 295.963 137.197 295.312C137.18 294.369 136.909 293.443 136.857 292.501Z" fill="url(#paint15_linear)"/>
<path d="M149.001 298.027C148.276 298.232 147.505 298.214 146.791 297.974C146.136 297.725 145.512 297.403 144.93 297.014C144.521 296.745 144.192 296.371 143.977 295.932C143.519 295.289 143.316 294.498 143.409 293.714C143.409 293.182 143.287 291.663 143.934 291.418C144.58 291.174 145.856 292.623 146.319 292.99C146.782 293.356 147.332 293.662 147.734 293.313C148.136 292.963 147.839 292.239 147.97 291.68C148.955 291.565 149.953 291.63 150.914 291.872C151.278 291.937 151.619 292.097 151.902 292.335C152.126 292.575 152.267 292.881 152.304 293.208C152.349 294.278 151.976 295.323 151.264 296.124C150.773 296.93 150.061 297.579 149.211 297.992L149.001 298.027Z" fill="#3F3D56"/>
<path d="M148.276 178.285C148.596 178.493 148.849 178.789 149.004 179.138C149.159 179.487 149.21 179.873 149.15 180.249C149.125 180.422 149.049 180.583 148.931 180.712C148.794 180.812 148.626 180.86 148.457 180.849C148.288 180.838 148.128 180.768 148.005 180.651C147.768 180.412 147.574 180.134 147.428 179.83C147.219 179.473 146.135 178.53 146.301 178.242C146.607 177.709 147.9 178.041 148.276 178.285Z" stroke="#3CB6D5" stroke-width="1.51" stroke-miterlimit="10"/>
<path d="M143.934 174.881C144.576 174.166 145.342 173.575 146.196 173.135C146.603 172.894 147.037 172.704 147.49 172.567C148.015 172.441 148.558 172.397 149.097 172.436C151.057 172.54 152.933 173.264 154.453 174.505C155.972 175.748 157.038 177.457 157.485 179.368C157.621 179.922 157.68 180.492 157.659 181.061C157.557 182.364 157.018 183.594 156.13 184.553C155.82 184.865 155.528 185.194 155.257 185.54C154.918 186.159 154.651 186.816 154.462 187.495C154.267 188.108 153.928 188.664 153.474 189.119C153.25 189.35 152.976 189.527 152.674 189.637C152.371 189.748 152.047 189.789 151.727 189.757C151.569 189.722 151.405 189.722 151.246 189.757C151.086 189.831 150.941 189.935 150.818 190.062C150.581 190.235 150.308 190.353 150.019 190.406C149.73 190.459 149.433 190.446 149.15 190.368C148.584 190.207 148.041 189.976 147.533 189.678C147.398 189.595 147.246 189.544 147.088 189.53C146.703 189.53 146.432 189.931 146.065 190.045C145.878 190.081 145.684 190.073 145.5 190.019C145.316 189.966 145.148 189.87 145.008 189.739C144.742 189.479 144.449 189.248 144.135 189.049C143.936 188.988 143.747 188.897 143.575 188.779C143.454 188.657 143.364 188.507 143.313 188.342C142.44 186.072 143.427 183.453 142.702 181.14C142.448 180.592 142.309 179.998 142.291 179.394C142.343 178.861 142.623 178.364 142.719 177.84C142.833 176.758 143.254 175.731 143.934 174.881Z" fill="#3F3D56"/>
<path d="M143.934 174.881C144.576 174.166 145.342 173.575 146.196 173.135C146.603 172.894 147.037 172.704 147.49 172.567C148.015 172.441 148.558 172.397 149.097 172.436C151.057 172.54 152.933 173.264 154.453 174.505C155.972 175.748 157.038 177.457 157.485 179.368C157.621 179.922 157.68 180.492 157.659 181.061C157.557 182.364 157.018 183.594 156.13 184.553C155.82 184.865 155.528 185.194 155.257 185.54C154.918 186.159 154.651 186.816 154.462 187.495C154.267 188.108 153.928 188.664 153.474 189.119C153.25 189.35 152.976 189.527 152.674 189.637C152.371 189.748 152.047 189.789 151.727 189.757C151.569 189.722 151.405 189.722 151.246 189.757C151.086 189.831 150.941 189.935 150.818 190.062C150.581 190.235 150.308 190.353 150.019 190.406C149.73 190.459 149.433 190.446 149.15 190.368C148.584 190.207 148.041 189.976 147.533 189.678C147.398 189.595 147.246 189.544 147.088 189.53C146.703 189.53 146.432 189.931 146.065 190.045C145.878 190.081 145.684 190.073 145.5 190.019C145.316 189.966 145.148 189.87 145.008 189.739C144.742 189.479 144.449 189.248 144.135 189.049C143.936 188.988 143.747 188.897 143.575 188.779C143.454 188.657 143.364 188.507 143.313 188.342C142.44 186.072 143.427 183.453 142.702 181.14C142.448 180.592 142.309 179.998 142.291 179.394C142.343 178.861 142.623 178.364 142.719 177.84C142.833 176.758 143.254 175.731 143.934 174.881Z" fill="url(#paint16_linear)"/>
<path d="M336.253 194.418L338.874 191.974C340.283 190.51 341.943 189.31 343.775 188.43C345.649 187.771 347.639 187.503 349.62 187.644C352.512 187.714 355.387 188.045 358.261 188.377C361.992 188.805 365.4 190.621 368.597 192.594C367.88 201.238 367.734 209.92 368.16 218.583C368.536 226.004 369.331 233.424 368.877 240.854C368.922 241.184 368.884 241.52 368.766 241.832C368.648 242.144 368.454 242.422 368.201 242.639C367.949 242.857 367.646 243.008 367.319 243.079C366.993 243.15 366.655 243.138 366.334 243.045C361.747 243.045 357.187 242.172 352.6 242.172C348.258 242.17 343.956 242.993 339.922 244.599C339.674 244.734 339.385 244.774 339.11 244.712C338.87 244.59 338.679 244.39 338.568 244.145C337.615 242.662 336.893 241.043 336.428 239.343C336.13 237.522 336.13 235.665 336.428 233.843L336.829 230.037C336.899 229.016 337.083 228.005 337.38 227.025C337.891 225.827 338.474 224.66 339.127 223.533C340.212 221.052 340.806 218.383 340.875 215.676C341.208 211.278 341.258 206.863 341.023 202.459C340.91 200.433 340.691 198.286 339.433 196.706C338.578 195.693 337.486 194.907 336.253 194.418Z" fill="#1E54B7"/>
<path d="M379.422 206.221C379.513 206.409 379.549 206.617 379.527 206.824C379.434 207.069 379.254 207.271 379.02 207.391C377.302 208.547 375.48 209.54 373.577 210.359C373.072 210.647 372.477 210.738 371.909 210.613C371.52 210.426 371.189 210.14 370.947 209.783C369.462 207.976 367.986 206.16 366.5 204.344C366.054 203.844 365.68 203.282 365.391 202.677C365.188 202.115 365.064 201.527 365.024 200.931C364.832 199.098 364.063 195.082 365.627 193.668C367.191 192.253 369.751 194.357 371.079 195.361C374.786 198.167 377.668 201.918 379.422 206.221Z" fill="#1E54B7"/>
<path d="M335.152 195.51C334.066 196.881 333.183 198.401 332.531 200.023C331.701 201.883 330.915 203.768 330.189 205.671C329.368 207.836 328.599 210.132 328.94 212.42C330.032 212.332 330.792 211.337 331.456 210.464C332.12 209.591 333.046 208.675 334.13 208.849C335.213 209.024 335.764 210.098 336.122 211.075C336.323 211.617 336.733 212.289 337.275 212.105C337.503 211.998 337.688 211.817 337.799 211.59L340.473 207.33C341.009 206.572 341.424 205.736 341.705 204.851C342.377 202.293 340.831 199.77 339.957 197.256C339.686 196.426 339.643 193.345 338.883 193.065C337.86 192.681 335.729 194.829 335.152 195.51Z" fill="#1E54B7"/>
<path d="M336.253 194.418L338.874 191.974C340.283 190.51 341.943 189.31 343.775 188.43C345.649 187.771 347.639 187.503 349.62 187.644C352.512 187.714 355.387 188.045 358.261 188.377C361.992 188.805 365.4 190.621 368.597 192.594C367.88 201.238 367.734 209.92 368.16 218.583C368.536 226.004 369.331 233.424 368.877 240.854C368.922 241.184 368.884 241.52 368.766 241.832C368.648 242.144 368.454 242.422 368.201 242.639C367.949 242.857 367.646 243.008 367.319 243.079C366.993 243.15 366.655 243.138 366.334 243.045C361.747 243.045 357.187 242.172 352.6 242.172C348.258 242.17 343.956 242.993 339.922 244.599C339.674 244.734 339.385 244.774 339.11 244.712C338.87 244.59 338.679 244.39 338.568 244.145C337.615 242.662 336.893 241.043 336.428 239.343C336.13 237.522 336.13 235.665 336.428 233.843L336.829 230.037C336.899 229.016 337.083 228.005 337.38 227.025C337.891 225.827 338.474 224.66 339.127 223.533C340.212 221.052 340.806 218.383 340.875 215.676C341.208 211.278 341.258 206.863 341.023 202.459C340.91 200.433 340.691 198.286 339.433 196.706C338.578 195.693 337.486 194.907 336.253 194.418Z" fill="url(#paint17_linear)"/>
<path d="M379.422 206.221C379.513 206.409 379.549 206.617 379.527 206.824C379.434 207.069 379.254 207.271 379.02 207.391C377.302 208.547 375.48 209.54 373.577 210.359C373.072 210.647 372.477 210.738 371.909 210.613C371.52 210.426 371.189 210.14 370.947 209.783C369.462 207.976 367.986 206.16 366.5 204.344C366.054 203.844 365.68 203.282 365.391 202.677C365.188 202.115 365.064 201.527 365.024 200.931C364.832 199.098 364.063 195.082 365.627 193.668C367.191 192.253 369.751 194.357 371.079 195.361C374.786 198.167 377.668 201.918 379.422 206.221Z" fill="url(#paint18_linear)"/>
<path d="M335.152 195.51C334.066 196.881 333.183 198.401 332.531 200.023C331.701 201.883 330.915 203.768 330.189 205.671C329.368 207.836 328.599 210.132 328.94 212.42C330.032 212.332 330.792 211.337 331.456 210.464C332.12 209.591 333.046 208.675 334.13 208.849C335.213 209.024 335.764 210.098 336.122 211.075C336.323 211.617 336.733 212.289 337.275 212.105C337.503 211.998 337.688 211.817 337.799 211.59L340.473 207.33C341.009 206.572 341.424 205.736 341.705 204.851C342.377 202.293 340.831 199.77 339.957 197.256C339.686 196.426 339.643 193.345 338.883 193.065C337.86 192.681 335.729 194.829 335.152 195.51Z" fill="url(#paint19_linear)"/>
<path d="M344.955 189.844C345.278 190.961 344.431 192.035 343.889 193.057C343.43 193.971 343.095 194.943 342.893 195.946C340.995 204.003 341.383 212.428 344.011 220.277C344.625 222.347 345.617 224.286 346.938 225.995C347.957 227.192 349.221 228.155 350.646 228.82C352.071 229.484 353.622 229.834 355.195 229.845C356.441 229.798 357.684 229.682 358.917 229.496C361.552 229.197 364.215 229.235 366.841 229.609C368.152 229.801 369.567 230.054 370.755 229.461C371.382 229.098 371.936 228.621 372.389 228.055C373.743 226.562 375.106 224.965 375.543 223.001C375.746 221.797 375.76 220.569 375.587 219.36C375.121 214.419 374.512 209.495 373.761 204.589C373.414 201.698 372.716 198.86 371.681 196.138C370.639 193.394 368.716 191.073 366.212 189.538C364.465 188.543 362.394 188.08 360.813 186.841C360.306 186.355 359.736 185.941 359.118 185.61C358.804 185.451 358.445 185.408 358.103 185.488C357.761 185.568 357.459 185.766 357.248 186.046C356.646 185.519 355.937 185.129 355.17 184.901C354.403 184.673 353.595 184.613 352.803 184.726C352.011 184.839 351.252 185.121 350.579 185.554C349.906 185.987 349.335 186.56 348.904 187.234C347.747 187.046 346.58 186.933 345.409 186.893C344.387 187.007 342.788 187.277 342.089 188.045C343.146 188.403 344.579 188.543 344.955 189.844Z" fill="#1E54B7"/>
<path d="M344.955 189.844C345.278 190.961 344.431 192.035 343.889 193.057C343.43 193.971 343.095 194.943 342.893 195.946C340.995 204.003 341.383 212.428 344.011 220.277C344.625 222.347 345.617 224.286 346.938 225.995C347.957 227.192 349.221 228.155 350.646 228.82C352.071 229.484 353.622 229.834 355.195 229.845C356.441 229.798 357.684 229.682 358.917 229.496C361.552 229.197 364.215 229.235 366.841 229.609C368.152 229.801 369.567 230.054 370.755 229.461C371.382 229.098 371.936 228.621 372.389 228.055C373.743 226.562 375.106 224.965 375.543 223.001C375.746 221.797 375.76 220.569 375.587 219.36C375.121 214.419 374.512 209.495 373.761 204.589C373.414 201.698 372.716 198.86 371.681 196.138C370.639 193.394 368.716 191.073 366.212 189.538C364.465 188.543 362.394 188.08 360.813 186.841C360.306 186.355 359.736 185.941 359.118 185.61C358.804 185.451 358.445 185.408 358.103 185.488C357.761 185.568 357.459 185.766 357.248 186.046C356.646 185.519 355.937 185.129 355.17 184.901C354.403 184.673 353.595 184.613 352.803 184.726C352.011 184.839 351.252 185.121 350.579 185.554C349.906 185.987 349.335 186.56 348.904 187.234C347.747 187.046 346.58 186.933 345.409 186.893C344.387 187.007 342.788 187.277 342.089 188.045C343.146 188.403 344.579 188.543 344.955 189.844Z" fill="url(#paint20_linear)"/>
<path d="M347.873 206.239C347.637 202.834 347.873 199.098 350.145 196.505C351.827 194.707 354.107 193.584 356.558 193.345C358.989 193.114 361.442 193.244 363.836 193.729C365.304 193.831 366.703 194.39 367.837 195.326C368.666 196.328 369.209 197.534 369.41 198.818C370.738 204.266 371.938 209.743 373.009 215.248C373.39 216.486 373.39 217.809 373.009 219.046C372.354 220.574 370.668 221.342 369.13 221.979C364.168 224.039 357.458 226.065 352.731 222.154C348.86 219.011 348.188 210.787 347.873 206.239Z" fill="#1E54B7"/>
<path d="M347.873 206.239C347.637 202.834 347.873 199.098 350.145 196.505C351.827 194.707 354.107 193.584 356.558 193.345C358.989 193.114 361.442 193.244 363.836 193.729C365.304 193.831 366.703 194.39 367.837 195.326C368.666 196.328 369.209 197.534 369.41 198.818C370.738 204.266 371.938 209.743 373.009 215.248C373.39 216.486 373.39 217.809 373.009 219.046C372.354 220.574 370.668 221.342 369.13 221.979C364.168 224.039 357.458 226.065 352.731 222.154C348.86 219.011 348.188 210.787 347.873 206.239Z" fill="url(#paint21_linear)"/>
<path d="M337.826 263.7C337.537 265.376 337.083 267.192 337.773 268.702C338.647 270.693 341.041 271.47 343.19 271.819C345.56 272.204 347.965 272.333 350.363 272.203C350.703 272.218 351.04 272.133 351.333 271.959C351.519 271.773 351.664 271.551 351.757 271.305C351.85 271.06 351.891 270.798 351.875 270.536L352.163 266.668L352.102 267.707C353.993 265.397 356.691 263.891 359.652 263.493C362.612 263.096 365.613 263.838 368.047 265.568C367.68 261.884 367.313 258.156 367.863 254.499C368.177 253.019 368.387 251.52 368.492 250.011C368.421 247.954 367.927 245.934 367.042 244.075C366.898 243.646 366.641 243.263 366.299 242.966C365.98 242.771 365.623 242.646 365.251 242.6C360.877 241.786 356.425 241.467 351.979 241.648C348.642 241.779 343.417 241.648 340.551 243.586C338.446 245.035 338.472 247.733 338.367 250.038C338.131 254.586 338.612 259.195 337.826 263.7Z" fill="#1E54B7"/>
<path d="M337.826 263.7C337.537 265.376 337.083 267.192 337.773 268.702C338.647 270.693 341.041 271.47 343.19 271.819C345.56 272.204 347.965 272.333 350.363 272.203C350.703 272.218 351.04 272.133 351.333 271.959C351.519 271.773 351.664 271.551 351.757 271.305C351.85 271.06 351.891 270.798 351.875 270.536L352.163 266.668C352.163 267.017 353.972 269.881 353.954 270.23C357.554 265.481 363.32 261.937 368.047 265.568C367.68 261.884 367.313 258.156 367.863 254.499C368.177 253.019 368.387 251.52 368.492 250.011C368.421 247.954 367.927 245.934 367.042 244.075C366.898 243.646 366.641 243.263 366.299 242.966C365.98 242.771 365.623 242.646 365.251 242.6C360.877 241.786 356.425 241.467 351.979 241.648C348.642 241.779 343.417 241.648 340.551 243.586C338.446 245.035 338.472 247.733 338.367 250.038C338.131 254.586 338.612 259.195 337.826 263.7Z" fill="url(#paint22_linear)"/>
<path d="M354.207 270.038C354.165 270.09 354.143 270.155 354.146 270.221C354.146 270.326 354.303 270.361 354.417 270.379C357.912 270.763 361.407 269.313 364.613 267.829L367.234 266.598C367.636 266.406 368.108 266.11 368.064 265.664C368.035 265.49 367.96 265.327 367.846 265.193C367.167 264.313 366.204 263.696 365.12 263.447C364.045 263.203 362.936 263.15 361.844 263.29C361.051 263.321 360.273 263.509 359.553 263.841C358.834 264.174 358.187 264.645 357.65 265.228C356.389 266.748 355.239 268.355 354.207 270.038Z" fill="#3F3D56"/>
<path d="M361.171 287.201C361.214 288.686 361.092 290.178 361.171 291.654C361.144 291.77 361.149 291.891 361.186 292.004C361.222 292.117 361.289 292.218 361.379 292.296C361.469 292.374 361.578 292.426 361.695 292.447C361.813 292.468 361.933 292.456 362.044 292.413C363.732 292.078 365.307 291.321 366.623 290.213C367.051 289.955 367.397 289.579 367.619 289.131C367.725 288.729 367.74 288.308 367.662 287.9C367.47 286.442 367.278 284.975 367.226 283.535C367.182 282.313 367.226 281.09 367.295 279.868L367.61 273.067C367.741 270.187 367.828 267.105 366.299 264.669C365.958 264.058 365.445 263.56 364.823 263.237C364.165 262.993 363.459 262.903 362.761 262.976C361.347 262.912 359.948 263.29 358.759 264.058C355.544 266.564 357.326 271.156 358.2 274.316C359.371 278.532 361.031 282.74 361.171 287.201Z" fill="url(#paint23_linear)"/>
<path d="M361.494 288.747C360.813 292.387 363.119 296.071 362.516 299.712C362.35 300.707 361.966 301.658 361.878 302.662C361.764 303.734 362.057 304.809 362.7 305.674C363.023 306.098 363.447 306.434 363.934 306.651C364.422 306.868 364.955 306.958 365.487 306.914C366.028 306.835 366.548 306.648 367.016 306.364C370.563 304.391 372.258 299.921 371.69 295.888C371.497 294.751 371.228 293.628 370.886 292.527C370.339 290.653 369.794 288.776 369.253 286.896C368.903 285.682 368.65 283.84 367.269 283.343C364.613 282.382 361.887 286.625 361.494 288.747Z" fill="#3F3D56"/>
<path d="M365.102 297.678C364.759 298.638 364.298 299.553 363.731 300.401C363.103 301.574 362.815 302.898 362.901 304.225C362.881 304.725 363.021 305.218 363.3 305.632C363.58 306.047 363.985 306.361 364.456 306.53C365.217 306.675 366.005 306.515 366.649 306.085C367.261 305.672 367.803 305.165 368.257 304.583C369.444 303.341 370.34 301.85 370.878 300.218C371.056 299.437 371.118 298.634 371.061 297.835C370.996 296.215 370.735 294.608 370.283 293.051C369.89 291.732 369.488 289.934 368.37 288.939C367.4 288.066 366.133 288.363 365.181 289.297C364.675 289.78 364.314 290.395 364.139 291.072C363.965 291.749 363.984 292.462 364.194 293.129C364.587 294.631 365.487 296.08 365.102 297.678Z" fill="url(#paint24_linear)"/>
<path d="M330.853 219.84C331.362 220.67 331.947 221.45 332.601 222.171L336.742 227.043C337.939 226.047 339.267 224.755 339.031 223.21C338.915 222.684 338.714 222.18 338.437 221.717C337.773 220.394 337.263 219 336.917 217.562C336.608 216.513 336.554 215.405 336.759 214.332C336.938 213.832 337.059 213.314 337.118 212.786C337.118 211.748 336.331 210.901 335.58 210.167C335.18 209.686 334.629 209.354 334.016 209.225C333.552 209.222 333.098 209.352 332.706 209.6C331.124 210.473 329.779 211.739 329.674 213.581C329.448 215.738 329.858 217.913 330.853 219.84Z" fill="url(#paint25_linear)"/>
<path d="M380.995 212.009C380.951 213.389 379.885 214.489 378.846 215.405C377.891 216.315 376.797 217.067 375.604 217.632C375.167 216.655 374.927 215.602 374.897 214.532L374.495 210.124C374.464 209.992 374.464 209.854 374.495 209.722C374.562 209.597 374.662 209.491 374.783 209.417C375.657 208.788 377.841 207.033 379.012 207.758C379.536 208.081 379.885 209.102 380.2 209.626C380.682 210.331 380.957 211.157 380.995 212.009Z" fill="url(#paint26_linear)"/>
<path d="M150.775 204.484C150.259 208.325 151.142 212.193 151.858 215.999C152.793 220.914 153.457 226.021 152.286 230.84C151.115 235.659 147.778 240.321 142.973 241.718C140.251 242.373 137.412 242.373 134.69 241.718C132.364 241.4 130.145 240.545 128.207 239.221C124.293 236.227 123.498 230.491 124.782 225.716C126.066 220.94 129.002 216.846 131.457 212.568C133.912 208.29 135.992 203.445 135.284 198.6C135.101 197.739 135.007 196.861 135.004 195.981C135.103 195.322 135.352 194.695 135.731 194.147C136.11 193.599 136.61 193.145 137.192 192.819C137.774 192.494 138.422 192.306 139.088 192.27C139.754 192.234 140.419 192.351 141.033 192.611L142.876 197.116C142.913 197.345 143.009 197.561 143.156 197.741C143.302 197.921 143.494 198.059 143.711 198.142C143.928 198.224 144.164 198.248 144.393 198.21C144.622 198.173 144.837 198.075 145.017 197.928C147.131 196.95 148.975 195.457 151.133 194.584C151.992 194.169 152.935 193.953 153.889 193.953C154.844 193.953 155.787 194.169 156.646 194.584C155.991 197.954 151.369 200.049 150.775 204.484Z" fill="#1E54B7"/>
<path d="M150.775 204.484C150.259 208.325 151.142 212.193 151.858 215.999C152.793 220.914 153.457 226.021 152.286 230.84C151.115 235.659 147.778 240.321 142.973 241.718C140.251 242.373 137.412 242.373 134.69 241.718C132.364 241.4 130.145 240.545 128.207 239.221C124.293 236.227 123.498 230.491 124.782 225.716C126.066 220.94 129.002 216.846 131.457 212.568C133.912 208.29 135.992 203.445 135.284 198.6C135.101 197.739 135.007 196.861 135.004 195.981C135.103 195.322 135.352 194.695 135.731 194.147C136.11 193.599 136.61 193.145 137.192 192.819C137.774 192.494 138.422 192.306 139.088 192.27C139.754 192.234 140.419 192.351 141.033 192.611L142.876 197.116C142.913 197.345 143.009 197.561 143.156 197.741C143.302 197.921 143.494 198.059 143.711 198.142C143.928 198.224 144.164 198.248 144.393 198.21C144.622 198.173 144.837 198.075 145.017 197.928C147.131 196.95 148.975 195.457 151.133 194.584C151.992 194.169 152.935 193.953 153.889 193.953C154.844 193.953 155.787 194.169 156.646 194.584C155.991 197.954 151.369 200.049 150.775 204.484Z" fill="url(#paint27_linear)"/>
<path d="M61.1678 96.6592C60.7921 101.234 63.0201 105.581 65.1869 109.641C58.0312 110.435 52.5968 118.371 54.484 125.355C54.7811 126.455 55.2179 127.686 54.6588 128.672C54.1956 129.311 53.5499 129.795 52.8065 130.06C46.0178 133.369 40.1466 138.974 37.6303 146.089C35.114 153.204 36.4071 161.803 41.7454 167.146C46.3411 171.746 53.156 173.423 59.6563 173.632C66.1567 173.842 72.6483 172.803 79.1573 172.881C83.7618 172.934 88.4535 173.545 92.9269 172.454C97.4002 171.362 101.769 167.984 102.179 163.392C102.686 157.743 97.3915 153.457 92.6298 150.349C95.1627 148.244 96.8737 145.316 97.4631 142.078C98.0526 138.839 97.4829 135.497 95.8538 132.636C93.154 128.183 88.2002 125.704 83.5084 123.443C87.0731 121.784 88.3137 116.922 86.7935 113.299C85.2733 109.676 81.6911 107.266 77.9342 106.096C80.2145 104.83 82.591 103.477 83.9714 101.26C85.3519 99.0425 85.3082 95.7076 83.1764 94.206C81.9969 93.333 80.3368 93.1933 79.4894 92.0235C79.1001 91.3175 78.8063 90.5631 78.6157 89.7799C75.4529 81.6871 61.6571 90.6616 61.1678 96.6592Z" fill="#1E54B7"/>
<path d="M348.808 131.806C344.658 136.442 344.387 144.386 348.904 148.664C346.597 150.951 344.16 153.544 343.906 156.783C343.478 162.353 350.136 166.316 355.64 165.347C361.145 164.378 365.452 160.231 369.357 156.233C371.508 158.649 374.299 160.409 377.408 161.308C380.517 162.207 383.817 162.209 386.928 161.314C388.796 160.841 390.461 159.775 391.672 158.276C393.629 155.561 392.912 151.606 390.903 148.926C388.893 146.246 385.87 144.561 382.943 142.911C387.46 141.043 391.156 136.678 391.165 131.798C391.174 126.918 386.657 122.195 381.816 122.884C386.823 119.453 387.723 111.736 384.437 106.664C381.152 101.592 374.503 99.252 368.492 100.055C361.555 100.981 354.723 107.336 356.33 114.146C352.652 111.692 347.034 112.653 344.605 116.337C342.176 120.021 343.732 125.774 347.794 127.511C352.591 129.563 352.198 128.009 348.808 131.806Z" fill="#1E54B7"/>
<path d="M61.1678 96.6592C60.7921 101.234 63.0201 105.581 65.1869 109.641C58.0312 110.435 52.5968 118.371 54.484 125.355C54.7811 126.455 55.2179 127.686 54.6588 128.672C54.1956 129.311 53.5499 129.795 52.8065 130.06C46.0178 133.369 40.1466 138.974 37.6303 146.089C35.114 153.204 36.4071 161.803 41.7454 167.146C46.3411 171.746 53.156 173.423 59.6563 173.632C66.1567 173.842 72.6483 172.803 79.1573 172.881C83.7618 172.934 88.4535 173.545 92.9269 172.454C97.4002 171.362 101.769 167.984 102.179 163.392C102.686 157.743 97.3915 153.457 92.6298 150.349C95.1627 148.244 96.8737 145.316 97.4631 142.078C98.0526 138.839 97.4829 135.497 95.8538 132.636C93.154 128.183 88.2002 125.704 83.5084 123.443C87.0731 121.784 88.3137 116.922 86.7935 113.299C85.2733 109.676 81.6911 107.266 77.9342 106.096C80.2145 104.83 82.591 103.477 83.9714 101.26C85.3519 99.0425 85.3082 95.7076 83.1764 94.206C81.9969 93.333 80.3368 93.1933 79.4894 92.0235C79.1001 91.3175 78.8063 90.5631 78.6157 89.7799C75.4529 81.6871 61.6571 90.6616 61.1678 96.6592Z" fill="url(#paint28_linear)"/>
<path d="M348.808 131.806C344.658 136.442 344.387 144.386 348.904 148.664C346.597 150.951 344.16 153.544 343.906 156.783C343.478 162.353 350.136 166.316 355.64 165.347C361.145 164.378 365.452 160.231 369.357 156.233C371.508 158.649 374.299 160.409 377.408 161.308C380.517 162.207 383.817 162.209 386.928 161.314C388.796 160.841 390.461 159.775 391.672 158.276C393.629 155.561 392.912 151.606 390.903 148.926C388.893 146.246 385.87 144.561 382.943 142.911C387.46 141.043 391.156 136.678 391.165 131.798C391.174 126.918 386.657 122.195 381.816 122.884C386.823 119.453 387.723 111.736 384.437 106.664C381.152 101.592 374.503 99.252 368.492 100.055C361.555 100.981 354.723 107.336 356.33 114.146C352.652 111.692 347.034 112.653 344.605 116.337C342.176 120.021 343.732 125.774 347.794 127.511C352.591 129.563 352.198 128.009 348.808 131.806Z" fill="url(#paint29_linear)"/>
<path d="M362.149 149.913C360.122 146.717 357.292 144.116 354.504 141.549L362.167 146.787C362.562 147.123 363.056 147.319 363.573 147.346C365.102 147.267 364.989 144.963 364.377 143.557L356.89 126.542C361.645 130.845 365.106 136.386 366.885 142.544C368.864 140.241 370.546 137.698 371.891 134.975C372.896 138.895 369.707 142.588 369.017 146.578C368.781 148.489 368.851 150.425 369.226 152.313C370.514 160.682 372.648 168.898 375.596 176.836C367.645 177.264 366.343 176.557 366.352 168.604C366.361 162.152 365.67 155.474 362.149 149.913Z" fill="#1E54B7"/>
<path d="M217.805 201.158C217.718 204.179 216.337 206.998 214.773 209.574C206.307 223.498 191.577 233.546 186.238 248.946C181.686 262.041 184.963 276.717 190.764 289.34C196.565 301.964 199.719 314.893 205.739 327.412C231.793 327.01 291.021 332.938 316.603 337.888C303.402 329.28 242.339 278.524 233.995 249.915C230.308 237.265 242.094 230.831 240.111 217.797C238.485 208.01 233.383 199.135 225.738 192.803C223.668 191.057 216.94 185.051 214.066 187.618C211.051 190.324 217.91 197.125 217.805 201.158Z" fill="#1E54B7"/>
<path d="M217.805 201.158C217.718 204.179 216.337 206.998 214.773 209.574C206.307 223.498 191.577 233.546 186.238 248.946C181.686 262.041 184.963 276.717 190.764 289.34C196.565 301.964 199.719 314.893 205.739 327.412C231.793 327.01 291.021 332.938 316.603 337.888C303.402 329.28 242.339 278.524 233.995 249.915C230.308 237.265 242.094 230.831 240.111 217.797C238.485 208.01 233.383 199.135 225.738 192.803C223.668 191.057 216.94 185.051 214.066 187.618C211.051 190.324 217.91 197.125 217.805 201.158Z" fill="url(#paint30_linear)"/>
<path d="M60.8621 181.123C60.6564 181.493 60.5273 181.901 60.4823 182.323C60.4373 182.744 60.4773 183.17 60.5999 183.576C61.0892 184.597 62.4609 184.746 63.5967 184.754H71.7047C70.0709 181.664 70.3155 177.962 70.6038 174.479C71.0319 169.241 71.6348 163.662 75.1558 159.821C77.7332 157.01 81.5338 155.57 84.1637 152.837C83.9627 152.008 82.757 152.13 81.962 152.444L71.8707 156.46C69.3894 152.593 69.8437 147.582 70.7349 143.077C71.6261 138.572 72.8667 133.893 71.6523 129.484C70.4542 135.065 68.8571 140.553 66.8731 145.905L62.5046 142.579C62.768 143.761 63.0976 144.927 63.4919 146.071C64.0883 147.166 64.5182 148.343 64.7675 149.563C65.2479 153.145 65.3883 156.763 65.1869 160.371C64.8933 167.478 63.4322 174.489 60.8621 181.123Z" fill="#1E54B7"/>
<path d="M343.295 21.0831C340.937 22.6924 338.942 24.7763 337.437 27.2013C335.932 29.6263 334.952 32.3388 334.558 35.1647C334.528 36.1258 334.225 37.0586 333.684 37.8536C332.435 39.2591 330.189 38.6131 328.363 38.1329C319.452 35.7846 309.203 41.625 306.652 50.4336C297.495 50.8614 286.731 52.1796 282.328 60.2549C281.526 61.5625 281.165 63.0922 281.297 64.6199C281.865 68.6881 286.88 70.2334 290.978 70.6786C300.405 71.7087 309.911 71.6302 319.39 71.5516C349.551 71.3072 379.737 71.0627 409.801 68.7405C411.138 68.6358 412.702 68.4001 413.348 67.2215C413.672 66.4767 413.754 65.6496 413.584 64.8557C412.169 52.7558 405.197 42.0004 397.167 32.8338C390.868 25.6402 382.314 18.6213 372.87 20.0006C366.859 20.8736 364.465 21.3189 359.065 19.3109C356.482 18.3466 353.708 18.0045 350.968 18.3124C348.228 18.6203 345.599 19.5696 343.295 21.0831Z" fill="white"/>
<path d="M101.769 51.3153C103.085 52.2821 104.565 53.0037 106.137 53.4454C110.06 54.2136 113.52 51.0534 117.085 49.2288C126.573 44.3749 138.054 49.0018 147.324 54.1962C149.003 55.2633 150.844 56.0533 152.775 56.5358C154.96 56.9549 157.214 56.5358 159.424 56.3612C168.013 55.6279 176.505 58.1072 184.762 60.6215C186.168 61.0405 187.697 61.5556 188.475 62.8127C189.349 64.2619 188.886 66.2 187.994 67.6579C184.43 73.4198 176.4 73.9697 169.647 73.865L47.8963 72.0404C45.5461 72.0404 43.1347 71.9531 40.9679 71.0277C39.831 70.5418 38.8059 69.828 37.956 68.9306C37.106 68.0331 36.4494 66.971 36.0265 65.8099C35.6037 64.6488 35.4237 63.4134 35.4976 62.18C35.5715 60.9467 35.8979 59.7416 36.4564 58.6392C37.0149 57.5368 37.7937 56.5606 38.7447 55.7709C39.6958 54.9812 40.7988 54.3948 41.9856 54.048C43.1725 53.7011 44.4179 53.6011 45.6449 53.7543C46.872 53.9074 48.0545 54.3104 49.1195 54.9382C57.4372 37.4781 88.2526 42.8558 101.769 51.3153Z" fill="white"/>
<path d="M140.185 178.285C138.054 178.949 136.437 180.686 135.118 182.484C134.629 183.109 134.211 183.785 133.869 184.501C132.829 186.797 132.995 189.739 131.064 191.389C132.114 191.344 133.113 190.923 133.877 190.202C132.637 191.655 131.115 192.843 129.404 193.694C129.539 193.966 129.75 194.194 130.013 194.349C130.275 194.504 130.576 194.58 130.88 194.567C131.488 194.535 132.082 194.381 132.628 194.113C134.238 193.671 135.713 192.838 136.922 191.688C138.131 190.538 139.036 189.106 139.556 187.522C139.153 188.32 138.823 189.152 138.569 190.01C138.498 190.144 138.461 190.294 138.461 190.446C138.461 190.598 138.498 190.748 138.569 190.883C138.892 191.276 139.53 190.883 139.871 190.533C141.618 188.578 142.798 186.081 144.877 184.475C145.751 183.776 146.957 183.113 147.105 181.969C147.542 178.608 142.422 177.578 140.185 178.285Z" fill="#3F3D56"/>
<path d="M350.433 252.639C350.372 252.037 350.171 251.286 349.559 251.181C348.971 252.693 348.538 254.261 348.266 255.86L347.34 260.435C346.889 262.278 346.658 264.168 346.65 266.066C346.645 267.571 347.106 269.04 347.969 270.274C348.563 271.042 350.372 273.015 351.412 271.758C351.979 271.068 352.11 267.515 352.163 266.677C352.268 264.966 350.756 255.616 350.433 252.639Z" fill="url(#paint31_linear)"/>
<path d="M340.971 267.812C341.898 267.486 342.847 267.224 343.81 267.026C344.788 267.045 345.746 267.306 346.597 267.786L349.507 269.113C349.902 269.261 350.262 269.49 350.564 269.785C350.71 269.936 350.808 270.128 350.843 270.335C350.879 270.542 350.852 270.755 350.765 270.946C350.625 271.119 350.448 271.259 350.247 271.354C350.046 271.449 349.826 271.498 349.603 271.496C347.892 271.71 346.158 271.631 344.474 271.26C343.187 270.946 341.923 270.544 340.691 270.056C340.08 269.829 338.489 269.357 338.603 268.493C338.717 267.629 340.342 267.934 340.971 267.812Z" fill="#3F3D56"/>
<path d="M340.875 297.66C340.852 297.894 340.895 298.13 340.997 298.341C341.162 298.567 341.405 298.726 341.679 298.786C343.111 299.266 344.937 299.074 345.802 297.835C346.501 296.839 346.388 295.513 346.309 294.343C345.925 288.083 347.471 281.885 347.978 275.634C348.216 273.803 348.091 271.943 347.611 270.16C347.113 268.624 345.864 267.096 344.238 267.184C341.242 267.349 341.146 269.995 341.128 272.238L341.041 280.829C340.988 286.439 340.933 292.05 340.875 297.66Z" fill="url(#paint32_linear)"/>
<path d="M340.551 303.439L341.259 306.006C341.29 306.179 341.365 306.342 341.478 306.477C341.587 306.562 341.712 306.624 341.845 306.66C341.979 306.696 342.118 306.705 342.255 306.687C344.197 306.647 346.121 306.308 347.96 305.683C348.113 305.646 348.255 305.571 348.371 305.465C348.498 305.296 348.565 305.091 348.563 304.88C348.763 302.822 348.783 300.751 348.624 298.69C348.644 297.836 348.362 297.002 347.829 296.333C347.72 296.209 347.578 296.118 347.419 296.071C347.258 296.066 347.097 296.093 346.947 296.152C346.797 296.21 346.66 296.299 346.545 296.412C345.625 297.064 344.536 297.437 343.408 297.485C342.82 297.534 342.227 297.472 341.661 297.302C341.355 297.197 340.866 296.709 340.56 296.7C338.533 296.674 340.254 302.383 340.551 303.439Z" fill="#3F3D56"/>
<path d="M377.072 337.67C378.531 338.683 380.104 339.713 381.877 339.791C384.429 339.905 386.587 338.045 388.963 337.094C391.68 336.011 394.703 336.142 397.604 335.793C404.978 334.92 411.583 330.878 417.856 326.949C409.242 319.092 396.442 318.542 385.468 314.57C382.926 313.654 380.462 312.536 377.972 311.497C373.349 309.568 368.62 307.901 363.809 306.504C362.778 307.185 363.407 308.782 364.141 309.777C368.801 316.09 374.399 321.654 380.742 326.277C378.767 327.814 375.901 326.679 373.752 325.404C366.592 321.296 359.895 316.429 353.779 310.886C352.189 309.437 345.042 302.732 343.295 306.355C341.888 309.245 349.891 315.234 351.481 316.753C359.47 324.362 368.025 331.354 377.072 337.67Z" fill="url(#paint33_linear)"/>
<path d="M141.199 204.336C143.198 204.782 145.01 205.834 146.389 207.348C147.686 209.046 148.463 211.084 148.625 213.214C148.888 215.318 148.835 217.457 149.08 219.561C149.298 221.42 149.735 223.245 149.822 225.104C150.003 226.978 149.538 228.857 148.503 230.43C146.511 228.16 146.389 224.877 145.882 221.901C145.405 218.655 144.301 215.533 142.632 212.708C141.645 211.084 140.308 209.486 138.464 209.015C137.467 208.857 136.46 208.77 135.45 208.753C134.83 208.683 134.087 208.413 134 207.793C133.988 207.52 134.048 207.249 134.174 207.007C134.629 205.881 134.917 204.17 136.21 203.768C137.503 203.367 139.888 204.013 141.199 204.336Z" fill="url(#paint34_linear)"/>
<path d="M138.849 223.385C138.483 222.122 137.761 220.992 136.769 220.128C134.83 218.767 132.174 219.744 130.068 220.818C129.156 221.22 128.323 221.778 127.604 222.468C126.688 223.59 126.109 224.95 125.935 226.388C125.656 227.917 125.524 229.469 125.542 231.024C125.507 231.976 125.686 232.925 126.066 233.8C126.713 234.878 127.695 235.714 128.862 236.183C132.022 237.662 135.629 237.881 138.945 236.794C139.925 236.533 140.808 235.993 141.487 235.24C142.684 233.73 141.435 231.617 141.059 230.002C140.486 227.745 139.747 225.533 138.849 223.385Z" fill="url(#paint35_linear)"/>
<path d="M340.237 168.621C340.245 169.877 340.16 171.132 339.984 172.375C339.774 173.309 339.328 174.261 339.582 175.195C339.833 175.904 340.329 176.501 340.98 176.88C341.625 177.253 342.236 177.683 342.806 178.163C343.475 178.865 343.969 179.714 344.247 180.642C344.4 181.266 344.664 181.857 345.025 182.388C345.54 182.974 346.252 183.35 347.026 183.445C347.791 183.541 348.566 183.541 349.332 183.445L351.892 183.226C352.413 183.245 352.921 183.068 353.316 182.729C353.683 182.327 353.674 181.716 353.945 181.245C354.094 181 354.312 180.799 354.443 180.546C354.561 180.266 354.646 179.973 354.697 179.673C355.046 178.268 356.444 177.299 356.828 175.911C357.012 175.265 356.986 174.575 357.222 173.946C357.632 172.838 358.759 172.148 359.292 171.092C358.366 171.019 357.501 170.597 356.872 169.913C356.75 169.773 356.68 169.485 356.872 169.45C357.2 169.554 357.542 169.601 357.886 169.59L355.763 167.032C355.219 166.288 354.544 165.649 353.771 165.147C352.399 164.378 350.73 164.527 349.157 164.466C349.037 164.474 348.918 164.444 348.817 164.378C348.745 164.294 348.686 164.2 348.642 164.099C348.529 163.985 348.392 163.9 348.24 163.85C348.088 163.8 347.926 163.787 347.768 163.811C345.958 163.88 344.178 164.298 342.526 165.042C340.936 165.618 340.359 167.023 340.237 168.621Z" fill="#3F3D56"/>
</g>
<defs>
<linearGradient id="paint0_linear" x1="211.348" y1="45.4487" x2="232.532" y2="101.812" gradientUnits="userSpaceOnUse">
<stop stop-color="white" stop-opacity="0"/>
<stop offset="0.99" stop-color="white"/>
</linearGradient>
<linearGradient id="paint1_linear" x1="341.242" y1="180.162" x2="355.072" y2="180.162" gradientUnits="userSpaceOnUse">
<stop stop-color="#ECC4D7"/>
<stop offset="0.42" stop-color="#EFD4D1"/>
<stop offset="1" stop-color="#F2EAC9"/>
</linearGradient>
<linearGradient id="paint2_linear" x1="177.833" y1="203.428" x2="152.574" y2="216.635" gradientUnits="userSpaceOnUse">
<stop offset="0.05" stop-opacity="0"/>
<stop offset="0.89" stop-opacity="0.75"/>
<stop offset="0.99"/>
</linearGradient>
<linearGradient id="paint3_linear" x1="3194.73" y1="5844.54" x2="3543.16" y2="5844.54" gradientUnits="userSpaceOnUse">
<stop stop-color="white" stop-opacity="0"/>
<stop offset="0.99" stop-color="white"/>
</linearGradient>
<linearGradient id="paint4_linear" x1="6880.15" y1="19121.7" x2="8702.71" y2="14062.2" gradientUnits="userSpaceOnUse">
<stop offset="0.05" stop-opacity="0"/>
<stop offset="0.89" stop-opacity="0.75"/>
<stop offset="0.99"/>
</linearGradient>
<linearGradient id="paint5_linear" x1="1683.79" y1="15342" x2="1781.12" y2="15342" gradientUnits="userSpaceOnUse">
<stop stop-color="#ECC4D7"/>
<stop offset="0.42" stop-color="#EFD4D1"/>
<stop offset="1" stop-color="#F2EAC9"/>
</linearGradient>
<linearGradient id="paint6_linear" x1="1634.48" y1="12912.2" x2="1739.9" y2="12912.2" gradientUnits="userSpaceOnUse">
<stop stop-color="#ECC4D7"/>
<stop offset="0.42" stop-color="#EFD4D1"/>
<stop offset="1" stop-color="#F2EAC9"/>
</linearGradient>
<linearGradient id="paint7_linear" x1="2259" y1="7790.74" x2="2417.3" y2="7790.74" gradientUnits="userSpaceOnUse">
<stop stop-color="#ECC4D7"/>
<stop offset="0.42" stop-color="#EFD4D1"/>
<stop offset="1" stop-color="#F2EAC9"/>
</linearGradient>
<linearGradient id="paint8_linear" x1="46392" y1="17048.1" x2="46341.6" y2="7091.41" gradientUnits="userSpaceOnUse">
<stop stop-color="white" stop-opacity="0"/>
<stop offset="0.99" stop-color="white"/>
</linearGradient>
<linearGradient id="paint9_linear" x1="215.498" y1="95.5068" x2="228.339" y2="305.152" gradientUnits="userSpaceOnUse">
<stop stop-opacity="0"/>
<stop offset="0.99"/>
</linearGradient>
<linearGradient id="paint10_linear" x1="12862.6" y1="6110.6" x2="16798.9" y2="24820.1" gradientUnits="userSpaceOnUse">
<stop stop-color="white" stop-opacity="0"/>
<stop offset="0.99" stop-color="white"/>
</linearGradient>
<linearGradient id="paint11_linear" x1="2212.28" y1="4036.33" x2="2385.12" y2="4036.33" gradientUnits="userSpaceOnUse">
<stop stop-color="#ECC4D7"/>
<stop offset="0.42" stop-color="#EFD4D1"/>
<stop offset="1" stop-color="#F2EAC9"/>
</linearGradient>
<linearGradient id="paint12_linear" x1="4035.51" y1="11732.3" x2="4746" y2="11732.3" gradientUnits="userSpaceOnUse">
<stop stop-color="white" stop-opacity="0"/>
<stop offset="0.99" stop-color="white"/>
</linearGradient>
<linearGradient id="paint13_linear" x1="2951.34" y1="6535.63" x2="3417.12" y2="6535.63" gradientUnits="userSpaceOnUse">
<stop stop-color="#ECC4D7"/>
<stop offset="0.42" stop-color="#EFD4D1"/>
<stop offset="1" stop-color="#F2EAC9"/>
</linearGradient>
<linearGradient id="paint14_linear" x1="3972.42" y1="10262.7" x2="7064.16" y2="11318.9" gradientUnits="userSpaceOnUse">
<stop offset="0.05" stop-opacity="0"/>
<stop offset="0.89" stop-opacity="0.75"/>
<stop offset="0.99"/>
</linearGradient>
<linearGradient id="paint15_linear" x1="1327.56" y1="4735.94" x2="1258.39" y2="5938.65" gradientUnits="userSpaceOnUse">
<stop stop-color="white" stop-opacity="0"/>
<stop offset="0.99" stop-color="white"/>
</linearGradient>
<linearGradient id="paint16_linear" x1="2867.96" y1="4790.56" x2="2778.01" y2="4792.79" gradientUnits="userSpaceOnUse">
<stop offset="0.05" stop-opacity="0"/>
<stop offset="0.89" stop-opacity="0.75"/>
<stop offset="0.99"/>
</linearGradient>
<linearGradient id="paint17_linear" x1="14119.4" y1="12594.6" x2="12853.6" y2="16927.1" gradientUnits="userSpaceOnUse">
<stop stop-color="white" stop-opacity="0"/>
<stop offset="0.99" stop-color="white"/>
</linearGradient>
<linearGradient id="paint18_linear" x1="6654.34" y1="6395.81" x2="6865.8" y2="4078.97" gradientUnits="userSpaceOnUse">
<stop stop-color="white" stop-opacity="0"/>
<stop offset="0.99" stop-color="white"/>
</linearGradient>
<linearGradient id="paint19_linear" x1="5261.49" y1="7689.25" x2="5558.09" y2="5129.95" gradientUnits="userSpaceOnUse">
<stop stop-color="white" stop-opacity="0"/>
<stop offset="0.99" stop-color="white"/>
</linearGradient>
<linearGradient id="paint20_linear" x1="13852.6" y1="11284.4" x2="17150.5" y2="18066.8" gradientUnits="userSpaceOnUse">
<stop stop-opacity="0"/>
<stop offset="0.99"/>
</linearGradient>
<linearGradient id="paint21_linear" x1="10255.1" y1="8388.99" x2="12753.9" y2="10275.6" gradientUnits="userSpaceOnUse">
<stop stop-color="white" stop-opacity="0"/>
<stop offset="0.99" stop-color="white"/>
</linearGradient>
<linearGradient id="paint22_linear" x1="12393" y1="8121.07" x2="13216.3" y2="11935.8" gradientUnits="userSpaceOnUse">
<stop offset="0.05" stop-opacity="0"/>
<stop offset="0.89" stop-opacity="0.75"/>
<stop offset="0.99"/>
</linearGradient>
<linearGradient id="paint23_linear" x1="4799.86" y1="11084.2" x2="4933.2" y2="11084.2" gradientUnits="userSpaceOnUse">
<stop stop-color="#ECC4D7"/>
<stop offset="0.42" stop-color="#EFD4D1"/>
<stop offset="1" stop-color="#F2EAC9"/>
</linearGradient>
<linearGradient id="paint24_linear" x1="3920.63" y1="6933.61" x2="2949.72" y2="7836.72" gradientUnits="userSpaceOnUse">
<stop stop-color="white" stop-opacity="0"/>
<stop offset="0.99" stop-color="white"/>
</linearGradient>
<linearGradient id="paint25_linear" x1="3921.37" y1="5528.82" x2="4023.19" y2="5528.82" gradientUnits="userSpaceOnUse">
<stop stop-color="#ECC4D7"/>
<stop offset="0.42" stop-color="#EFD4D1"/>
<stop offset="1" stop-color="#F2EAC9"/>
</linearGradient>
<linearGradient id="paint26_linear" x1="3190.2" y1="3143.25" x2="3238.86" y2="3143.25" gradientUnits="userSpaceOnUse">
<stop stop-color="#ECC4D7"/>
<stop offset="0.42" stop-color="#EFD4D1"/>
<stop offset="1" stop-color="#F2EAC9"/>
</linearGradient>
<linearGradient id="paint27_linear" x1="3259.67" y1="17328" x2="8849.54" y2="14868.4" gradientUnits="userSpaceOnUse">
<stop offset="0.05" stop-opacity="0"/>
<stop offset="0.89" stop-opacity="0.75"/>
<stop offset="0.99"/>
</linearGradient>
<linearGradient id="paint28_linear" x1="5483.08" y1="15818.5" x2="5125.77" y2="45551.6" gradientUnits="userSpaceOnUse">
<stop stop-opacity="0"/>
<stop offset="0.99"/>
</linearGradient>
<linearGradient id="paint29_linear" x1="20515.9" y1="11173.3" x2="27092.1" y2="24904.3" gradientUnits="userSpaceOnUse">
<stop stop-opacity="0"/>
<stop offset="0.99"/>
</linearGradient>
<linearGradient id="paint30_linear" x1="59016.2" y1="106787" x2="-12029.8" y2="-14700.5" gradientUnits="userSpaceOnUse">
<stop offset="0.05" stop-opacity="0"/>
<stop offset="0.89" stop-opacity="0.75"/>
<stop offset="0.99"/>
</linearGradient>
<linearGradient id="paint31_linear" x1="2496.42" y1="7509.03" x2="2648.6" y2="7516.33" gradientUnits="userSpaceOnUse">
<stop offset="0.05" stop-opacity="0"/>
<stop offset="0.89" stop-opacity="0.75"/>
<stop offset="0.99"/>
</linearGradient>
<linearGradient id="paint32_linear" x1="3181.86" y1="12144.8" x2="3241.41" y2="12144.8" gradientUnits="userSpaceOnUse">
<stop stop-color="#ECC4D7"/>
<stop offset="0.42" stop-color="#EFD4D1"/>
<stop offset="1" stop-color="#F2EAC9"/>
</linearGradient>
<linearGradient id="paint33_linear" x1="37852.2" y1="16544.5" x2="33640.6" y2="8268.84" gradientUnits="userSpaceOnUse">
<stop offset="0.05" stop-opacity="0"/>
<stop offset="0.89" stop-opacity="0.75"/>
<stop offset="0.99"/>
</linearGradient>
<linearGradient id="paint34_linear" x1="3183.06" y1="7325.28" x2="1719.54" y2="8356.37" gradientUnits="userSpaceOnUse">
<stop offset="0.05" stop-opacity="0"/>
<stop offset="0.89" stop-opacity="0.75"/>
<stop offset="0.99"/>
</linearGradient>
<linearGradient id="paint35_linear" x1="2867.47" y1="5038.03" x2="2408.82" y2="6862.02" gradientUnits="userSpaceOnUse">
<stop offset="0.05" stop-opacity="0"/>
<stop offset="0.89" stop-opacity="0.75"/>
<stop offset="0.99"/>
</linearGradient>
<clipPath id="clip0">
<rect width="450" height="342" fill="white"/>
</clipPath>
</defs>
</svg>
