<svg width="28" height="28" viewBox="0 0 28 28" fill="none" xmlns="http://www.w3.org/2000/svg">
<path d="M14 9.5H20C20.825 9.5 21.5 8.825 21.5 8C21.5 7.175 20.825 6.5 20 6.5H14C13.175 6.5 12.5 7.175 12.5 8C12.5 8.825 13.175 9.5 14 9.5Z" fill="#333333"/>
<path d="M14 15.5H20C20.825 15.5 21.5 14.825 21.5 14C21.5 13.175 20.825 12.5 20 12.5H14C13.175 12.5 12.5 13.175 12.5 14C12.5 14.825 13.175 15.5 14 15.5Z" fill="#333333"/>
<path d="M14 21.5H20C20.825 21.5 21.5 20.825 21.5 20C21.5 19.175 20.825 18.5 20 18.5H14C13.175 18.5 12.5 19.175 12.5 20C12.5 20.825 13.175 21.5 14 21.5Z" fill="#333333"/>
<path d="M8 9.5C8.82843 9.5 9.5 8.82843 9.5 8C9.5 7.17157 8.82843 6.5 8 6.5C7.17157 6.5 6.5 7.17157 6.5 8C6.5 8.82843 7.17157 9.5 8 9.5Z" fill="#333333"/>
<path d="M8 15.5C8.82843 15.5 9.5 14.8284 9.5 14C9.5 13.1716 8.82843 12.5 8 12.5C7.17157 12.5 6.5 13.1716 6.5 14C6.5 14.8284 7.17157 15.5 8 15.5Z" fill="#333333"/>
<path d="M8 21.5C8.82843 21.5 9.5 20.8284 9.5 20C9.5 19.1716 8.82843 18.5 8 18.5C7.17157 18.5 6.5 19.1716 6.5 20C6.5 20.8284 7.17157 21.5 8 21.5Z" fill="#333333"/>
<path d="M24.5 0.5H3.5C1.85 0.5 0.5 1.85 0.5 3.5V24.5C0.5 26.15 1.85 27.5 3.5 27.5H24.5C26.15 27.5 27.5 26.15 27.5 24.5V3.5C27.5 1.85 26.15 0.5 24.5 0.5ZM24.5 24.5H3.5V3.5H24.5V24.5Z" fill="#333333"/>
</svg>
