<svg width="48" height="48" viewBox="0 0 48 48" fill="none" xmlns="http://www.w3.org/2000/svg">
<g clip-path="url(#clip0)">
<path d="M0 35.0164C0 42.0223 5.69967 47.7223 12.7059 47.7223L14.1176 35.0164L12.7059 22.3105C5.70005 22.3105 0 28.0101 0 35.0164Z" fill="#8493FB"/>
<path d="M16.9412 33.5815H24.7059L25.4118 24.405L24.7059 15.2285C23.767 15.2285 17.8862 15.2285 16.9412 15.2285V33.5815Z" fill="#8493FB"/>
<path d="M24.7058 33.5815H32.4705L33.8823 22.2874L32.4705 10.9933C31.5317 10.9933 25.6508 10.9933 24.7058 10.9933V33.5815Z" fill="#C21456"/>
<path d="M32.4706 33.5815H40.2353L40.9412 20.1697L40.2353 6.75793C39.2965 6.75793 33.4156 6.75793 32.4706 6.75793V33.5815Z" fill="#00CB76"/>
<path d="M12.7058 22.3105V47.7223C19.7118 47.7223 25.4117 42.0225 25.4117 35.0164C25.4117 28.0103 19.7118 22.3105 12.7058 22.3105Z" fill="#6666FA"/>
<path d="M40.2352 2.52267H47.9999V33.5815H40.2352V2.52267Z" fill="#ECBD2C"/>
<path d="M2.82349 35.0164C2.82349 37.5848 3.81455 40.0193 5.58273 41.8593L14.1176 35.0164L12.7058 25.1341C7.2569 25.1341 2.82349 29.5671 2.82349 35.0164Z" fill="#F9F9F9"/>
<path d="M12.7058 25.1341V36.405L19.8289 41.8593C21.5367 40.0822 22.5882 37.6699 22.5882 35.0164C22.5882 29.5673 18.1549 25.1341 12.7058 25.1341Z" fill="#E2DFF4"/>
<path d="M5.58276 41.8592C7.44262 43.7946 9.99519 44.8987 12.7059 44.8987L14.1176 40.9972L12.7059 37.0956C9.54154 37.0956 6.75942 39.0243 5.58276 41.8592Z" fill="#BFE85F"/>
<path d="M12.7058 37.0956V44.8987C15.5015 44.8987 18.0295 43.7317 19.8289 41.8592C18.6694 39.0657 15.9138 37.0956 12.7058 37.0956Z" fill="#00CB76"/>
<path d="M8.92634 38.351C9.89472 39.3193 11.2316 39.9191 12.7059 39.9191L14.1177 34.5715L12.7059 29.2239C11.2316 29.2239 9.89472 29.8237 8.92634 30.7919C6.83608 32.8823 6.83477 36.2594 8.92634 38.351Z" fill="#EDBBA7"/>
<path d="M12.7058 29.2239V39.9192C15.6545 39.9192 18.0534 37.5203 18.0534 34.5716C18.0534 31.6228 15.6545 29.2239 12.7058 29.2239Z" fill="#E8A38B"/>
<path d="M8.71286 5.26901C6.9617 7.02026 3.28218 10.6999 2.25037 11.7315L4.24688 13.728C5.45695 12.518 7.99973 9.97518 8.71286 9.26214C9.19596 9.74525 12.2196 12.769 12.7059 13.2552L14.1177 11.2587L12.7059 9.26214C12.2228 8.77904 9.19916 5.75532 8.71286 5.26901Z" fill="#DD4E4E"/>
<path d="M21.6902 0.277771L12.7058 9.26215V13.2552L23.6867 2.27429L21.6902 0.277771Z" fill="#C21456"/>
</g>
<defs>
<clipPath id="clip0">
<rect width="48" height="48" fill="white"/>
</clipPath>
</defs>
</svg>
