<svg width="48" height="48" viewBox="0 0 48 48" fill="none" xmlns="http://www.w3.org/2000/svg">
<g clip-path="url(#clip0)">
<path d="M39.3607 19.7355V10.2374H27.5339V19.7355C22.4436 22.002 18.8947 27.1044 18.8947 33.0359C18.8947 41.0731 25.4099 47.5884 33.4471 47.5884C41.4844 47.5884 48 41.0731 48 33.0359C48 27.1044 44.4507 22.002 39.3607 19.7355Z" fill="#C9FFF7"/>
<path d="M45.0549 33.0363C45.0549 39.4369 39.8481 44.6433 33.4468 44.6433C31.3411 44.6433 29.365 44.0801 27.661 43.0953C24.1838 41.0889 21.8397 37.3312 21.8397 33.0363C21.8397 29.8253 23.1698 26.8206 25.4059 24.6676H41.4884C43.7249 26.8206 45.0549 29.8253 45.0549 33.0363Z" fill="#F7D360"/>
<path d="M30.1926 19.7358V17.1072C30.1926 15.683 31.3469 14.5287 32.7708 14.5287H39.3607V11.71L37.0155 9.57568L34.8069 8.98682L27.5343 11.7096V19.7358C22.4432 22.0023 18.8947 27.104 18.8947 33.0363C18.8947 41.0387 25.3539 47.5323 33.3446 47.5873C28.9684 47.4862 25.4385 41.0101 25.4385 33.0363C25.4385 27.104 27.3918 22.0023 30.1926 19.7358Z" fill="#72CEC0"/>
<path d="M27.661 43.0953C24.1838 41.0889 21.8397 37.3312 21.8397 33.0363C21.8397 29.8253 23.1698 26.8206 25.4059 24.6676H26.8953C25.9772 27.0344 25.4385 29.9205 25.4385 33.0363C25.4385 36.9382 26.2837 40.4813 27.661 43.0953Z" fill="#E58E13"/>
<path d="M28.4553 41.2603L19.0045 24.891V16.4216H10.0228V24.891L0.572003 41.2603C-1.05178 44.0728 0.977765 47.5884 4.22569 47.5884H24.802C28.0495 47.5884 30.0794 44.0728 28.4553 41.2603Z" fill="#E6E6E6"/>
<path d="M19.0045 16.4216L16.2547 14.8766L10.9845 14.9315L10.0225 16.4216V24.8906L0.572037 41.2606C-1.05284 44.0731 0.977432 47.5884 4.22462 47.5884H9.84193C8.3672 47.5884 7.44545 44.0731 8.18263 41.2606L12.4746 24.8906V20.5426C12.4746 19.649 13.199 18.925 14.0925 18.925H19.0045V16.4216Z" fill="#CCCCCC"/>
<path d="M22.2609 14.5074C22.2609 15.5647 21.4039 16.4216 20.3467 16.4216H8.6803C8.15222 16.4216 7.67322 16.2078 7.32678 15.861C6.98035 15.5145 6.76611 15.0355 6.76611 14.5074C6.76611 13.4502 7.62305 12.5933 8.6803 12.5933H20.3467C20.8748 12.5933 21.3538 12.8071 21.7002 13.1536C22.0466 13.5004 22.2609 13.9794 22.2609 14.5074Z" fill="#CCCCCC"/>
<path d="M22.2609 14.5074C22.2609 15.5647 21.4039 16.4216 20.3467 16.4216H13.3228C12.7936 16.4216 12.3157 16.2078 11.9689 15.861C11.6224 15.5145 11.4086 15.0355 11.4086 14.5074C11.4086 13.4502 12.2655 12.5933 13.3228 12.5933H20.3467C20.8748 12.5933 21.3538 12.8071 21.7002 13.1536C22.0466 13.5004 22.2609 13.9794 22.2609 14.5074Z" fill="#E6E6E6"/>
<path d="M42.6577 9.79541C42.6577 10.8527 41.8008 11.7096 40.7435 11.7096H26.3123C25.7831 11.7096 25.3048 11.4957 24.9584 11.1493C24.6119 10.8025 24.3977 10.3235 24.3977 9.79541C24.3977 8.73816 25.255 7.88123 26.3123 7.88123H40.7435C41.2716 7.88123 41.7506 8.09509 42.097 8.44189C42.4438 8.78833 42.6577 9.26733 42.6577 9.79541Z" fill="#72CEC0"/>
<path d="M42.6577 9.79541C42.6577 10.8527 41.8008 11.7096 40.7435 11.7096H30.7855C30.2574 11.7096 29.7784 11.4957 29.4316 11.1493C29.0852 10.8025 28.8713 10.3235 28.8713 9.79541C28.8713 8.73816 29.7283 7.88123 30.7855 7.88123H40.7435C41.2716 7.88123 41.7506 8.09509 42.097 8.44189C42.4438 8.78833 42.6577 9.26733 42.6577 9.79541Z" fill="#C9FFF7"/>
<path d="M25.9046 44.0065C25.7673 44.2449 25.4413 44.6433 24.8023 44.6433H4.22563C3.5855 44.6433 3.25957 44.2449 3.12224 44.0065C2.98491 43.7688 2.80217 43.2869 3.12224 42.7332L10.0674 30.7039H18.9605L25.9046 42.7332C26.2247 43.2869 26.0419 43.7688 25.9046 44.0065Z" fill="#FC5F61"/>
<path d="M8.18254 41.2606C7.89323 42.3651 7.85954 43.5773 8.01482 44.6433H4.22563C3.58549 44.6433 3.25957 44.2449 3.12224 44.0065C2.98491 43.7688 2.80217 43.2869 3.12224 42.7332L10.0674 30.7039H10.95L8.18254 41.2606Z" fill="#E83842"/>
<path d="M16.0967 39.0967C15.428 39.0967 15.1097 38.2372 15.6191 37.801C16.1256 37.3674 16.9206 37.8098 16.8251 38.469C16.7734 38.8257 16.4563 39.0967 16.0967 39.0967Z" fill="#E83842"/>
<path d="M12.8496 8.91283C12.2069 8.91283 11.8765 8.10937 12.3292 7.65526C12.5738 7.41027 12.9704 7.37218 13.2579 7.56408C13.5098 7.7318 13.6355 8.04748 13.5662 8.34227C13.4893 8.6715 13.1883 8.91283 12.8496 8.91283Z" fill="#E83842"/>
<path d="M15.7795 6.11498C15.1134 6.11498 14.7878 5.25219 15.3013 4.8186C15.5455 4.61205 15.9019 4.58569 16.1732 4.75671C16.434 4.92114 16.5669 5.24413 16.4966 5.54479C16.4197 5.87329 16.1187 6.11498 15.7795 6.11498Z" fill="#E83842"/>
<path d="M14.1837 1.84497C13.8622 1.84497 13.5729 1.6289 13.4788 1.32238C13.3854 1.0166 13.5084 0.673459 13.7743 0.496213C14.3207 0.131467 15.0601 0.647092 14.8971 1.28759C14.8147 1.61059 14.5177 1.84497 14.1837 1.84497Z" fill="#E83842"/>
<path d="M39.9119 29.2324C39.2574 29.2324 38.9311 28.3967 39.4138 27.9536C39.8763 27.5292 40.6483 27.8679 40.6483 28.496C40.6483 28.8962 40.3129 29.2324 39.9119 29.2324Z" fill="white"/>
<path d="M40.4246 34.1426C39.7833 34.1426 39.4472 33.3387 39.9042 32.8861C40.1327 32.6598 40.4879 32.6074 40.7717 32.7579C41.0438 32.9026 41.1969 33.2106 41.153 33.5149C41.101 33.8719 40.7838 34.1426 40.4246 34.1426Z" fill="white"/>
<path d="M30.8219 39.6859C30.5069 39.6859 30.222 39.479 30.1231 39.1805C30.0184 38.8656 30.1455 38.5082 30.4249 38.3295C30.9793 37.9746 31.7074 38.5082 31.5312 39.145C31.4444 39.4599 31.1493 39.6859 30.8219 39.6859Z" fill="white"/>
<path d="M27.435 33.5013C26.7696 33.5013 26.4466 32.6433 26.9538 32.2086C27.1973 31.9995 27.554 31.9735 27.8261 32.1423C28.0843 32.3031 28.2183 32.6191 28.1553 32.9169C28.0843 33.253 27.7792 33.5013 27.435 33.5013Z" fill="white"/>
<path d="M36.4165 31.7344C35.7584 31.7344 35.4325 30.8939 35.9225 30.4534C36.1667 30.2336 36.5322 30.2029 36.8105 30.3768C37.065 30.5365 37.1972 30.8478 37.139 31.1426C37.0716 31.4824 36.7626 31.7344 36.4165 31.7344Z" fill="white"/>
<path d="M10.9442 40.6216C10.6487 40.6216 10.3773 40.4392 10.2638 40.1671C10.1393 39.8675 10.2323 39.5076 10.4879 39.3072C11.0127 38.8967 11.8008 39.3699 11.6657 40.0294C11.5961 40.3693 11.2921 40.6216 10.9442 40.6216Z" fill="#E83842"/>
<path d="M12.8584 35.8575C12.5504 35.8575 12.2691 35.6594 12.1651 35.3694C12.0545 35.061 12.1677 34.7043 12.4372 34.5176C12.9613 34.1547 13.6963 34.615 13.5831 35.2474C13.5208 35.5953 13.2129 35.8575 12.8584 35.8575Z" fill="#E83842"/>
</g>
<defs>
<clipPath id="clip0">
<rect width="48" height="48" fill="white"/>
</clipPath>
</defs>
</svg>
